<svg width="392.335" height="74.757" viewBox="0 0 392.335 74.757" xmlns="http://www.w3.org/2000/svg"><g id="svgGroup" stroke-linecap="round" fill-rule="evenodd" font-size="9pt" stroke="#000000" stroke-width="0.25mm" fill="#000000" style="stroke:#000000;stroke-width:0.25mm;fill:#000000"><path d="M 35.84 73.731 L 20.801 73.731 L 0 0.977 L 16.797 0.977 L 28.857 51.514 L 29.492 51.514 L 42.725 0.977 L 57.129 0.977 L 70.313 51.661 L 70.996 51.661 L 83.008 0.977 L 99.854 0.977 L 79.004 73.731 L 64.014 73.731 L 50.195 26.172 L 49.609 26.172 L 35.84 73.731 Z M 107.959 73.731 L 107.959 0.977 L 126.904 0.977 L 146.924 49.854 L 147.754 49.854 L 167.822 0.977 L 186.914 0.977 L 186.914 73.731 L 171.826 73.731 L 171.826 26.368 L 171.289 26.368 L 152.393 73.389 L 142.188 73.389 L 123.486 26.27 L 122.852 26.27 L 122.852 73.731 L 107.959 73.731 Z M 197.168 50.879 L 212.061 50.879 A 12.94 12.94 0 0 0 212.799 54.46 A 9.639 9.639 0 0 0 216.382 59.107 A 14.656 14.656 0 0 0 221.62 61.375 Q 223.649 61.835 226.003 61.864 A 25.795 25.795 0 0 0 226.318 61.866 A 22.54 22.54 0 0 0 230.073 61.571 Q 232.149 61.22 233.835 60.45 A 11.739 11.739 0 0 0 235.718 59.375 A 9.093 9.093 0 0 0 237.84 57.343 A 7.33 7.33 0 0 0 239.258 52.881 Q 239.258 49.219 236.035 47.242 A 19.709 19.709 0 0 0 233.496 45.948 Q 230.786 44.787 226.916 43.863 A 63.466 63.466 0 0 0 226.855 43.848 L 218.896 41.895 Q 211.33 40.084 206.401 36.498 A 23.602 23.602 0 0 1 204.419 34.888 A 15.895 15.895 0 0 1 199.264 24.578 A 22.27 22.27 0 0 1 199.121 22.022 A 20.563 20.563 0 0 1 200.241 15.146 A 18.472 18.472 0 0 1 202.686 10.474 Q 206.25 5.518 212.476 2.759 A 31.864 31.864 0 0 1 221.164 0.357 A 41.029 41.029 0 0 1 226.66 0 A 39.891 39.891 0 0 1 233.697 0.592 A 29.395 29.395 0 0 1 240.82 2.784 A 24.649 24.649 0 0 1 246.647 6.47 A 21.01 21.01 0 0 1 250.269 10.499 A 19.865 19.865 0 0 1 253.712 20.68 A 24.276 24.276 0 0 1 253.76 21.875 L 238.916 21.875 A 9.899 9.899 0 0 0 238.032 18.514 A 8.682 8.682 0 0 0 235.303 15.235 Q 232.599 13.228 228.281 12.904 A 23.022 23.022 0 0 0 226.563 12.842 A 21.888 21.888 0 0 0 223.306 13.069 Q 221.602 13.326 220.223 13.874 A 9.59 9.59 0 0 0 217.92 15.162 A 8.242 8.242 0 0 0 216.017 17.164 A 6.907 6.907 0 0 0 214.893 21.045 A 6.957 6.957 0 0 0 215.407 23.772 Q 216.083 25.378 217.651 26.487 A 8.56 8.56 0 0 0 218.262 26.88 Q 221.529 28.798 226.082 29.912 A 40.884 40.884 0 0 0 226.367 29.981 L 232.861 31.592 A 46.913 46.913 0 0 1 239.554 33.595 A 37.75 37.75 0 0 1 244.141 35.718 A 23.291 23.291 0 0 1 249.242 39.456 A 20.159 20.159 0 0 1 251.904 42.652 A 16.44 16.44 0 0 1 254.402 48.984 A 22.328 22.328 0 0 1 254.736 52.93 A 21.597 21.597 0 0 1 253.455 60.516 A 18.939 18.939 0 0 1 247.266 68.848 A 25.223 25.223 0 0 1 238.745 73.162 Q 235.122 74.246 230.773 74.593 A 53.546 53.546 0 0 1 226.514 74.756 A 46.937 46.937 0 0 1 217.87 74.008 Q 212.924 73.081 208.993 71.004 A 25.29 25.29 0 0 1 205.396 68.702 A 20.386 20.386 0 0 1 197.776 56.244 A 30.569 30.569 0 0 1 197.168 50.879 Z M 263.867 53.174 L 279.346 53.174 A 7.695 7.695 0 0 0 282.144 58.966 A 10.326 10.326 0 0 0 282.959 59.595 A 13.172 13.172 0 0 0 288.062 61.7 A 18.143 18.143 0 0 0 291.504 62.012 A 16.791 16.791 0 0 0 295.294 61.607 A 11.762 11.762 0 0 0 300.122 59.302 A 8.985 8.985 0 0 0 302.604 56.25 Q 303.463 54.484 303.467 52.312 A 10.995 10.995 0 0 0 303.467 52.295 A 8.589 8.589 0 0 0 300.646 45.752 A 11.076 11.076 0 0 0 299.902 45.118 A 12.185 12.185 0 0 0 295.755 43.052 Q 294.057 42.559 292.038 42.405 A 24.983 24.983 0 0 0 290.137 42.334 L 283.35 42.334 L 283.35 31.006 L 290.137 31.006 A 16.923 16.923 0 0 0 293.854 30.62 A 11.666 11.666 0 0 0 298.657 28.37 A 8.361 8.361 0 0 0 301.919 22.292 A 10.585 10.585 0 0 0 301.953 21.436 A 9.562 9.562 0 0 0 301.411 18.155 A 8.304 8.304 0 0 0 299.097 14.771 A 9.782 9.782 0 0 0 294.454 12.483 A 14.028 14.028 0 0 0 291.602 12.207 A 15.17 15.17 0 0 0 287.531 12.731 A 12.192 12.192 0 0 0 283.521 14.673 A 8.488 8.488 0 0 0 281.098 17.355 Q 280.164 19.024 280.083 21.135 A 10.377 10.377 0 0 0 280.078 21.29 L 265.332 21.29 A 19.822 19.822 0 0 1 266.702 14.175 A 18.382 18.382 0 0 1 268.896 10.206 Q 272.363 5.42 278.296 2.71 A 29.901 29.901 0 0 1 287.18 0.265 A 37.559 37.559 0 0 1 291.699 0 A 34.985 34.985 0 0 1 298.336 0.601 A 26.314 26.314 0 0 1 304.858 2.735 A 23.975 23.975 0 0 1 310.148 6.178 A 20.245 20.245 0 0 1 313.647 10.108 A 18.096 18.096 0 0 1 316.797 20.508 A 16.109 16.109 0 0 1 316.015 25.624 A 13.671 13.671 0 0 1 312.988 30.689 A 16.886 16.886 0 0 1 305.151 35.403 A 21.626 21.626 0 0 1 303.076 35.889 L 303.076 36.426 Q 311.084 37.452 315.259 41.993 A 15.706 15.706 0 0 1 319.366 51.634 A 20.762 20.762 0 0 1 319.434 53.321 Q 319.434 59.522 315.845 64.356 A 22.526 22.526 0 0 1 309.295 70.22 A 28.807 28.807 0 0 1 305.933 71.949 A 32.597 32.597 0 0 1 297.43 74.303 A 42.578 42.578 0 0 1 291.455 74.707 A 39.625 39.625 0 0 1 283.936 74.024 A 30.942 30.942 0 0 1 277.295 71.973 A 25.99 25.99 0 0 1 271.45 68.468 A 21.738 21.738 0 0 1 267.529 64.38 A 18.921 18.921 0 0 1 263.871 53.372 A 22.979 22.979 0 0 1 263.867 53.174 Z M 356.787 73.731 L 331.006 73.731 L 331.006 0.977 L 356.982 0.977 A 46.362 46.362 0 0 1 366.007 1.813 A 33.918 33.918 0 0 1 375.879 5.347 Q 383.789 9.717 388.062 17.847 A 36.028 36.028 0 0 1 391.516 28.005 Q 392.332 32.341 392.334 37.286 A 58.54 58.54 0 0 1 392.334 37.305 Q 392.334 48.657 388.08 56.8 A 32.34 32.34 0 0 1 388.062 56.836 A 29.674 29.674 0 0 1 375.83 69.361 A 34.464 34.464 0 0 1 365.43 72.982 A 47.538 47.538 0 0 1 356.787 73.731 Z M 346.338 14.161 L 346.338 60.547 L 356.104 60.547 A 30.805 30.805 0 0 0 362.056 60.009 Q 365.58 59.314 368.295 57.724 A 15.926 15.926 0 0 0 371.729 55.03 Q 375.587 51.029 376.648 43.512 A 44.538 44.538 0 0 0 377.051 37.305 A 43.675 43.675 0 0 0 376.63 31.015 Q 376.159 27.79 375.162 25.217 A 16.389 16.389 0 0 0 371.729 19.678 Q 366.406 14.161 356.104 14.161 L 346.338 14.161 Z" vector-effect="non-scaling-stroke"/></g></svg>